<?xml version="1.0" standalone="no"?>
<!DOCTYPE svg PUBLIC "-//W3C//DTD SVG 20010904//EN"
 "http://www.w3.org/TR/2001/REC-SVG-20010904/DTD/svg10.dtd">
<svg version="1.0" xmlns="http://www.w3.org/2000/svg"
 width="100.5pt" height="100.5pt" viewBox="0 0 225.000000 225.000000"
 preserveAspectRatio="xMidYMid meet">

<g transform="translate(0.000000,225.000000) scale(0.070000,-0.070000)"
fill="#000000" stroke="none">
<path d="M955 2206 c-284 -55 -527 -204 -696 -425 -69 -91 -154 -267 -186
-386 -24 -91 -27 -116 -27 -280 0 -164 3 -189 27 -280 184 -684 950 -1023
1578 -699 463 239 695 769 558 1274 -31 115 -127 302 -205 398 -153 191 -383
334 -624 389 -92 20 -337 26 -425 9z m-415 -742 l0 -116 30 26 c78 65 202 37
252 -56 19 -36 23 -58 23 -138 0 -79 -4 -102 -22 -137 -35 -65 -75 -88 -155
-88 -60 0 -70 3 -97 29 l-31 30 0 -27 c0 -26 -2 -27 -60 -27 l-60 0 0 310 0
310 60 0 60 0 0 -116z m520 -144 c0 -237 2 -260 18 -268 9 -5 22 -7 29 -5 7 3
15 -10 19 -31 10 -56 2 -66 -56 -66 -41 0 -55 5 -82 29 l-33 29 -3 286 -3 286
56 0 55 0 0 -260z m1022 124 c13 -8 -14 -65 -38 -81 -23 -15 -24 -17 -8 -34
26 -29 29 -108 5 -146 -31 -49 -65 -66 -145 -72 -68 -6 -71 -7 -71 -31 0 -24
2 -25 96 -31 142 -10 185 -41 183 -136 -1 -53 -25 -89 -80 -117 -53 -28 -231
-30 -281 -3 -42 22 -73 64 -73 97 0 35 32 76 66 84 l27 7 -22 20 c-32 30 -29
83 9 110 l29 22 -29 33 c-104 119 19 275 186 237 l43 -10 12 34 c11 33 13 35
48 28 19 -4 39 -9 43 -11z m-571 -60 c83 -49 124 -154 101 -261 -16 -75 -47
-118 -106 -148 -127 -64 -275 -5 -313 124 -37 128 17 257 124 297 50 19 152
12 194 -12z m-1214 -316 c46 -43 15 -112 -51 -112 -45 0 -69 23 -69 65 0 62
74 91 120 47z"/>
<path d="M569 1281 c-21 -22 -29 -40 -30 -68 -3 -121 22 -165 96 -165 66 0 95
40 95 132 0 93 -26 129 -93 130 -29 0 -45 -7 -68 -29z"/>
<path d="M1840 1310 c-43 -43 -14 -120 45 -120 44 0 65 22 65 70 0 29 -6 43
-22 54 -31 22 -64 20 -88 -4z"/>
<path d="M1792 938 c-34 -34 3 -76 74 -84 66 -8 124 15 124 48 0 40 -18 48
-105 48 -50 0 -86 -5 -93 -12z"/>
<path d="M1344 1295 c-33 -22 -47 -68 -42 -135 6 -80 32 -110 98 -110 37 0 51
5 71 26 21 23 24 35 24 106 0 75 -2 81 -28 104 -33 28 -91 32 -123 9z"/>
</g>
</svg>